<?xml version="1.0" ?><svg viewBox="0 0 256 256" xmlns="http://www.w3.org/2000/svg"><rect fill="none" height="256" width="256"/><line fill="none" stroke="#000" stroke-linecap="round" stroke-linejoin="round" stroke-width="16" x1="16" x2="240" y1="120" y2="120"/><path d="M224,184v24a8,8,0,0,1-8,8H192a8,8,0,0,1-8-8V184" fill="none" stroke="#000" stroke-linecap="round" stroke-linejoin="round" stroke-width="16"/><path d="M72,184v24a8,8,0,0,1-8,8H40a8,8,0,0,1-8-8V184" fill="none" stroke="#000" stroke-linecap="round" stroke-linejoin="round" stroke-width="16"/><line fill="none" stroke="#000" stroke-linecap="round" stroke-linejoin="round" stroke-width="16" x1="64" x2="80" y1="152" y2="152"/><line fill="none" stroke="#000" stroke-linecap="round" stroke-linejoin="round" stroke-width="16" x1="176" x2="192" y1="152" y2="152"/><path d="M224,120,194.1,52.8a8,8,0,0,0-7.3-4.8H69.2a8,8,0,0,0-7.3,4.8L32,120v64H224Z" fill="none" stroke="#000" stroke-linecap="round" stroke-linejoin="round" stroke-width="16"/></svg>