<?xml version="1.0" ?><svg height="32" id="icon" viewBox="0 0 32 32" width="32" xmlns="http://www.w3.org/2000/svg"><defs><style>.cls-1{fill:none;}</style></defs><title/><rect height="4" width="2" x="27" y="11"/><rect height="4" width="2" x="3" y="11"/><rect height="2" width="2" x="20" y="20"/><rect height="2" width="2" x="10" y="20"/><path d="M21,4H11A5.0059,5.0059,0,0,0,6,9V23a2.0023,2.0023,0,0,0,2,2v3h2V25H22v3h2V25a2.0027,2.0027,0,0,0,2-2V9A5.0059,5.0059,0,0,0,21,4Zm3,6,.0009,6H8V10ZM11,6H21a2.995,2.995,0,0,1,2.8157,2H8.1843A2.995,2.995,0,0,1,11,6ZM8,23V18H24.0012l.0008,5Z" transform="translate(0 0)"/><rect class="cls-1" data-name="&lt;Transparent Rectangle&gt;" height="32" id="_Transparent_Rectangle_" width="32"/></svg>