<svg width="24" height="24" viewBox="0 0 24 24" fill="none" xmlns="http://www.w3.org/2000/svg">
<path fill-rule="evenodd" clip-rule="evenodd" d="M8.48128 18.3783L12 22L15.5187 18.3783C19.4746 14.3385 19.5 11.8279 19.5 9.70128C19.5 5.44797 16.122 2 11.9928 2C7.86354 2 4.5 5.44797 4.5 9.70128C4.5 11.8279 4.52539 14.3385 8.48128 18.3783ZM13.2037 8.60336C12.8729 8.38234 12.484 8.26437 12.0862 8.26437C11.5527 8.26437 11.0411 8.47629 10.6639 8.85352C10.2866 9.23075 10.0747 9.74238 10.0747 10.2759C10.0747 10.6737 10.1927 11.0626 10.4137 11.3934C10.6347 11.7242 10.9489 11.982 11.3164 12.1342C11.684 12.2865 12.0884 12.3263 12.4786 12.2487C12.8688 12.1711 13.2272 11.9795 13.5085 11.6982C13.7899 11.4169 13.9814 11.0585 14.0591 10.6683C14.1367 10.2781 14.0968 9.87365 13.9446 9.50609C13.7923 9.13854 13.5345 8.82439 13.2037 8.60336Z" fill="#0E1520"/>
</svg>
